<?xml version="1.0" encoding="UTF-8" standalone="no"?>
<!-- Created with Inkscape (http://www.inkscape.org/) -->

<svg
   xmlns:dc="http://purl.org/dc/elements/1.1/"
   xmlns:cc="http://creativecommons.org/ns#"
   xmlns:rdf="http://www.w3.org/1999/02/22-rdf-syntax-ns#"
   xmlns:svg="http://www.w3.org/2000/svg"
   xmlns="http://www.w3.org/2000/svg"
   xmlns:sodipodi="http://sodipodi.sourceforge.net/DTD/sodipodi-0.dtd"
   xmlns:inkscape="http://www.inkscape.org/namespaces/inkscape"
   width="90"
   height="30"
   viewBox="0 0 23.8125 7.9374997"
   version="1.1"
   id="svg8"
   inkscape:version="0.92.2 (5c3e80d, 2017-08-06)"
   sodipodi:docname="button_resume.svg">
  <defs
     id="defs2">
    <inkscape:perspective
       sodipodi:type="inkscape:persp3d"
       inkscape:vp_x="-49.295695 : 7.3361434 : 1"
       inkscape:vp_y="0 : 999.99996 : 0"
       inkscape:vp_z="762.81184 : 7.3361434 : 1"
       inkscape:persp3d-origin="356.75807 : 4.6903102 : 1"
       id="perspective828" />
    <filter
       inkscape:label="Monochrome Transparency"
       inkscape:menu="Fill and Transparency"
       inkscape:menu-tooltip="Convert to a colorizable transparent positive or negative"
       style="color-interpolation-filters:sRGB;"
       id="filter51">
      <feColorMatrix
         type="luminanceToAlpha"
         result="fbSourceGraphic"
         id="feColorMatrix43" />
      <feFlood
         flood-color="rgb(134,39,24)"
         result="result1"
         flood-opacity="1"
         id="feFlood45" />
      <feComposite
         operator="out"
         in2="fbSourceGraphic"
         result="result2"
         id="feComposite47" />
      <feComposite
         operator="in"
         in2="SourceGraphic"
         id="feComposite49" />
    </filter>
  </defs>
  <sodipodi:namedview
     id="base"
     pagecolor="#ffffff"
     bordercolor="#666666"
     borderopacity="1.0"
     inkscape:pageopacity="0.0"
     inkscape:pageshadow="2"
     inkscape:zoom="11.2"
     inkscape:cx="39.304752"
     inkscape:cy="10.45287"
     inkscape:document-units="mm"
     inkscape:current-layer="layer1"
     showgrid="false"
     inkscape:pagecheckerboard="true"
     units="px"
     inkscape:window-width="1904"
     inkscape:window-height="1001"
     inkscape:window-x="1920"
     inkscape:window-y="0"
     inkscape:window-maximized="1" />
  <metadata
     id="metadata5">
    <rdf:RDF>
      <cc:Work
         rdf:about="">
        <dc:format>image/svg+xml</dc:format>
        <dc:type
           rdf:resource="http://purl.org/dc/dcmitype/StillImage" />
        <dc:title />
      </cc:Work>
    </rdf:RDF>
  </metadata>
  <g
     inkscape:label="Layer 1"
     inkscape:groupmode="layer"
     id="layer1"
     transform="translate(0,-289.0625)">
    <rect
       style="opacity:1;fill:#ffffff;fill-opacity:1;stroke:#000000;stroke-width:0.01148467;stroke-miterlimit:4;stroke-dasharray:none;stroke-opacity:1"
       id="rect78"
       width="23.801016"
       height="7.9260154"
       x="0.0057423306"
       y="289.06824" />
    <rect
       style="opacity:1;fill:#000000;fill-opacity:1;stroke:#000000;stroke-width:0.00992349;stroke-miterlimit:4;stroke-dasharray:none;stroke-opacity:1"
       id="rect78-2"
       width="22.215076"
       height="6.3400764"
       x="0.79871172"
       y="289.86121" />
    <text
       xml:space="preserve"
       style="font-style:normal;font-variant:normal;font-weight:normal;font-stretch:normal;font-size:4.65082598px;line-height:1.25;font-family:Algerian;-inkscape-font-specification:Algerian;letter-spacing:0px;word-spacing:0px;fill:#ffffff;fill-opacity:1;stroke:none;stroke-width:0.21800746"
       x="8.4769697"
       y="288.61728"
       id="text959"
       transform="scale(0.98168529,1.0186564)"><tspan
         sodipodi:role="line"
         x="8.4769697"
         y="288.61728"
         id="tspan957"
         style="font-size:3.3921268px;stroke-width:0.21800746">RESUME</tspan></text>
    <path
       style="opacity:1;fill:#ffffff;fill-opacity:1;stroke:#000000;stroke-width:0.00123407;stroke-miterlimit:4;stroke-dasharray:none;stroke-opacity:1"
       d="m 3.3961803,294.33028 c -0.014933,-0.008 -0.038616,-0.0303 -0.05263,-0.0486 -0.056047,-0.0733 -0.056002,-0.0727 -0.056002,-0.71712 v -0.60165 H 3.4611841 3.63482 l 0.00288,0.43736 0.00288,0.43736 0.9638935,0.004 0.9638933,0.004 0.00288,-0.43744 0.00288,-0.43745 0.1765181,-0.004 0.1765181,-0.004 v 0.60663 c 0,0.60405 -1.119e-4,0.60684 -0.024441,0.65691 -0.013442,0.0276 -0.038241,0.0646 -0.055107,0.0821 -0.030638,0.0318 -0.031764,0.0318 -1.2274793,0.0347 -0.7803494,0.002 -1.2062609,-0.002 -1.223964,-0.0123 z"
       id="path75"
       inkscape:connector-curvature="0" />
    <path
       style="opacity:1;fill:#ffffff;fill-opacity:1;stroke:#000000;stroke-width:0.00148478;stroke-miterlimit:4;stroke-dasharray:none;stroke-opacity:1"
       d="m 4.5333255,292.98741 c -0.015862,-0.008 -0.1948631,-0.14917 -0.3977804,-0.31264 -0.5590287,-0.45039 -0.6041247,-0.488 -0.6041247,-0.50388 0,-0.0105 0.082988,-0.0147 0.2931478,-0.0147 h 0.2931476 v -0.56149 c 0,-0.50034 0.00325,-0.56233 0.029916,-0.56917 0.059564,-0.0153 0.812311,-0.009 0.8362883,0.007 0.016945,0.0113 0.022695,0.15226 0.022695,0.55618 v 0.54101 l 0.2789631,0.004 c 0.2650773,0.004 0.2789032,0.005 0.2777542,0.0288 -0.0018,0.0376 -0.8818893,0.80269 -0.9523345,0.82791 -0.044579,0.016 -0.041987,0.0161 -0.077673,-0.003 z"
       id="path77"
       inkscape:connector-curvature="0" />
  </g>
</svg>
