<?xml version="1.0" standalone="no"?>
<!DOCTYPE svg PUBLIC "-//W3C//DTD SVG 20010904//EN"
 "http://www.w3.org/TR/2001/REC-SVG-20010904/DTD/svg10.dtd">
<svg version="1.0" xmlns="http://www.w3.org/2000/svg"
 width="888.000000pt" height="336.000000pt" viewBox="0 0 888.000000 336.000000"
 preserveAspectRatio="xMidYMid meet">
<metadata>
Created by potrace 1.10, written by Peter Selinger 2001-2011
</metadata>
<g transform="translate(0.000000,336.000000) scale(0.100000,-0.100000)"
fill="#26a25d" stroke="none">
<path d="M1832 3122 c-35 -57 -109 -201 -257 -505 -32 -65 -66 -122 -76 -128
-13 -7 -27 -5 -46 4 -58 30 -124 38 -220 28 -50 -5 -105 -17 -122 -25 -60 -32
-82 12 -36 74 14 19 25 37 25 41 0 8 173 373 189 399 32 51 62 123 57 135 -4
12 -30 15 -130 15 -125 0 -125 0 -144 -27 -25 -36 -132 -257 -132 -273 0 -7
-9 -29 -19 -49 -11 -20 -49 -99 -86 -176 -37 -77 -102 -212 -145 -300 -43 -88
-92 -191 -109 -230 -18 -38 -35 -77 -40 -85 -18 -35 -70 -139 -93 -190 -15
-30 -54 -112 -88 -183 -33 -70 -58 -132 -55 -137 4 -6 57 -10 124 -10 137 0
141 3 182 105 13 33 41 91 61 128 20 37 40 78 44 90 6 19 42 94 142 295 46 92
185 180 299 190 70 5 122 -15 181 -71 43 -41 42 -76 -6 -163 -102 -187 -272
-543 -266 -558 5 -13 25 -16 129 -16 140 0 136 -2 180 95 15 33 46 101 70 150
92 191 165 351 165 362 0 4 21 51 46 103 25 52 63 131 84 175 95 202 133 281
207 435 44 91 84 177 88 190 4 14 19 41 32 61 15 23 23 48 21 66 l-3 28 -112
2 -112 2 -29 -47z"/>
<path d="M2407 3078 c-9 -7 -31 -40 -48 -73 -18 -33 -40 -76 -50 -95 -11 -19
-19 -42 -19 -52 0 -17 67 -18 1520 -18 l1520 0 30 42 c16 22 30 45 30 50 0 6
16 36 36 69 21 33 34 65 31 74 -6 13 -168 15 -1520 15 -1195 0 -1517 -3 -1530
-12z"/>
<path d="M5790 3064 c-28 -24 -126 -211 -116 -221 3 -4 52 -5 109 -4 109 3
129 11 155 64 58 122 73 160 66 167 -5 4 -49 10 -99 12 -80 3 -92 1 -115 -18z"/>
<path d="M6337 3052 c-9 -10 -31 -47 -49 -82 -19 -36 -42 -77 -52 -92 -41 -62
-110 -58 1064 -58 751 0 1077 3 1092 11 11 6 29 31 40 56 11 25 33 68 49 95
16 27 29 58 29 68 0 20 -15 20 -1078 20 -1021 0 -1080 -1 -1095 -18z"/>
<path d="M5526 2515 c-12 -6 -39 -46 -61 -90 -23 -44 -107 -208 -187 -365
-234 -457 -268 -527 -268 -557 0 -11 21 -13 116 -11 l115 3 28 55 c16 30 50
100 76 155 26 55 114 236 196 402 82 167 149 307 149 313 0 5 9 26 19 46 11
20 18 41 15 48 -6 15 -168 15 -198 1z"/>
<path d="M3725 2511 c-51 -8 -150 -44 -218 -80 -75 -39 -219 -157 -271 -221
-47 -59 -142 -238 -287 -545 -24 -49 -52 -102 -62 -117 -37 -50 -21 -59 105
-56 l111 3 28 55 c16 30 70 141 121 245 164 340 219 416 339 475 51 25 81 33
146 37 106 7 141 0 181 -38 27 -26 32 -37 32 -78 0 -41 -14 -76 -99 -242 -55
-107 -118 -232 -141 -279 -23 -47 -48 -97 -56 -112 -19 -36 -18 -56 4 -62 27
-9 204 -5 223 5 8 4 87 151 174 326 136 272 166 325 209 369 76 76 149 106
269 112 89 4 100 2 131 -18 44 -31 76 -79 76 -116 0 -17 -13 -50 -28 -75 -16
-24 -45 -78 -66 -119 -20 -41 -56 -111 -80 -155 -24 -44 -65 -120 -91 -170
-26 -49 -54 -103 -62 -118 -10 -18 -12 -32 -6 -38 5 -5 60 -8 123 -7 88 2 115
6 121 18 4 8 16 35 27 60 56 129 132 285 180 365 29 50 69 124 90 165 82 168
39 315 -115 386 -45 21 -67 24 -160 24 -135 0 -242 -28 -368 -95 -102 -54
-123 -54 -160 5 -42 67 -100 89 -247 94 -68 3 -145 1 -173 -3z"/>
<path d="M2420 2494 c-30 -8 -69 -23 -87 -32 -17 -9 -57 -30 -89 -47 -65 -34
-207 -156 -275 -236 -45 -53 -129 -188 -129 -207 0 -5 -10 -31 -22 -58 -17
-38 -22 -68 -22 -134 0 -77 3 -91 29 -136 17 -28 44 -63 60 -76 33 -28 162
-68 216 -68 51 1 188 34 239 59 90 44 145 74 160 87 8 7 28 16 43 20 29 7 86
83 87 114 0 23 -47 88 -69 95 -12 4 -65 -18 -152 -63 -141 -73 -195 -88 -263
-72 -67 15 -126 93 -126 167 0 50 9 51 405 57 l370 5 22 28 c41 51 83 177 83
252 0 109 -64 201 -167 240 -67 26 -227 28 -313 5z m149 -206 c50 -40 63 -84
34 -111 -15 -13 -50 -16 -192 -18 -152 -2 -176 0 -185 14 -32 51 202 170 287
146 15 -4 40 -18 56 -31z"/>
<path d="M6400 2487 c-155 -52 -353 -181 -428 -280 -21 -29 -53 -81 -71 -117
-18 -36 -37 -72 -42 -80 -28 -48 -101 -191 -178 -350 -22 -47 -48 -97 -57
-111 -31 -48 -15 -59 86 -59 l90 0 36 78 c115 246 226 452 299 554 146 204
423 262 517 107 28 -46 22 -73 -37 -182 -30 -55 -55 -103 -55 -107 0 -4 -18
-40 -40 -79 -44 -81 -93 -183 -117 -245 -9 -22 -25 -52 -35 -65 -10 -13 -18
-32 -18 -42 0 -17 9 -19 113 -19 96 0 116 3 129 18 8 9 62 112 119 227 57 116
119 239 139 275 55 102 84 200 77 268 -10 108 -64 178 -160 212 -82 29 -275
27 -367 -3z"/>
<path d="M7790 2500 c-106 -16 -176 -38 -255 -80 -117 -63 -251 -174 -318
-263 -31 -42 -57 -79 -57 -83 0 -3 -8 -18 -19 -32 -59 -85 -86 -255 -57 -356
32 -109 141 -186 265 -186 86 0 277 64 311 104 15 19 67 21 73 4 6 -20 -11
-72 -28 -84 -9 -6 -33 -38 -55 -70 -76 -111 -99 -140 -149 -187 -28 -26 -58
-47 -68 -47 -10 0 -36 -7 -58 -15 -35 -12 -521 -14 -3595 -15 -1955 0 -3563 0
-3572 0 -10 0 -33 -25 -54 -57 -20 -32 -55 -84 -76 -117 -22 -33 -36 -62 -31
-67 12 -12 7200 -11 7278 0 135 20 212 49 274 103 49 43 130 138 152 178 11
19 25 44 32 54 59 94 97 158 97 164 0 4 18 45 40 90 22 44 40 86 40 92 0 10
14 44 66 155 7 17 26 62 42 100 125 302 130 320 117 420 -18 149 -179 228
-395 195z m59 -218 c34 -22 48 -39 71 -87 27 -56 25 -93 -10 -161 -35 -66
-143 -202 -168 -211 -9 -3 -24 -12 -32 -18 -34 -29 -148 -66 -218 -72 -70 -6
-74 -5 -122 28 -50 34 -80 84 -80 132 1 76 103 229 203 304 67 49 150 91 207
104 47 10 117 1 149 -19z"/>
<path d="M8103 1085 c-3 -9 -3 -18 0 -22 10 -10 37 6 37 22 0 20 -29 20 -37 0z"/>
<path d="M2776 716 c-61 -15 -105 -62 -129 -140 -30 -94 -31 -142 -4 -242 29
-108 61 -155 128 -190 43 -21 56 -23 124 -17 42 3 78 10 82 16 3 5 6 80 6 166
l1 156 -40 0 -39 0 4 -115 c3 -114 3 -116 -24 -148 -15 -18 -34 -32 -44 -32
-19 0 -82 61 -102 100 -17 33 -25 257 -10 301 6 19 27 51 46 72 41 45 80 49
115 12 13 -14 32 -25 42 -25 48 0 22 73 -30 83 -16 3 -40 8 -53 11 -13 2 -46
-1 -73 -8z"/>
<path d="M2080 707 c-13 -7 -35 -28 -48 -47 -19 -28 -22 -43 -17 -75 19 -125
19 -128 -14 -159 -30 -29 -31 -33 -31 -116 0 -81 2 -89 31 -129 54 -73 121
-83 175 -25 26 29 38 35 58 30 13 -3 28 -15 31 -26 9 -28 42 -45 61 -29 24 20
14 61 -42 171 -8 14 -14 38 -14 53 0 32 -16 65 -33 65 -25 0 -67 50 -67 81 0
24 -6 32 -30 41 -35 12 -50 35 -50 77 0 49 48 79 78 49 7 -7 12 -33 12 -59 0
-54 11 -67 35 -43 11 12 14 25 9 48 -20 92 -75 128 -144 93z m31 -299 c13 -18
40 -54 61 -79 39 -48 46 -76 28 -110 -8 -14 -21 -19 -55 -19 -39 0 -47 4 -76
41 -26 34 -34 53 -37 99 -7 97 34 132 79 68z"/>
<path d="M5695 679 c-66 -61 -80 -107 -80 -264 0 -118 2 -134 25 -178 13 -27
42 -64 63 -84 32 -29 46 -34 80 -33 71 3 76 1 96 -38 11 -20 29 -48 40 -62
l20 -25 25 25 c14 14 26 38 28 54 3 27 -1 31 -32 37 -60 13 -76 56 -38 104 43
54 60 205 37 317 -6 29 -25 77 -41 107 -34 59 -71 81 -138 81 -33 0 -48 -7
-85 -41z m138 -52 c35 -43 45 -94 46 -243 1 -101 -6 -112 -55 -94 -14 6 -30
10 -35 10 -17 0 -9 -27 16 -50 52 -49 13 -105 -44 -63 -45 35 -65 103 -69 245
-3 135 3 164 51 216 28 31 54 25 90 -21z"/>
<path d="M172 423 l3 -288 80 -8 c89 -8 116 -4 139 19 16 15 23 84 9 84 -5 0
-26 -14 -47 -30 -46 -35 -56 -36 -87 -12 -22 19 -22 21 -20 243 1 123 2 235 4
249 2 23 -2 25 -41 28 l-42 3 2 -288z"/>
<path d="M642 698 c-5 -7 -13 -38 -17 -69 -7 -55 -6 -57 21 -71 30 -14 41 -41
43 -110 1 -34 -2 -38 -23 -38 -13 0 -35 10 -50 21 -16 12 -31 18 -36 13 -9
-11 -19 -124 -11 -124 4 0 12 9 19 21 15 24 42 19 87 -19 44 -36 59 -70 60
-132 l0 -55 46 -3 c66 -4 71 7 43 102 -13 44 -24 90 -24 103 0 13 -9 61 -19
106 -30 127 -41 186 -41 216 0 15 -5 32 -12 39 -16 16 -73 15 -86 0z"/>
<path d="M915 700 c-3 -5 1 -41 9 -78 9 -37 21 -139 27 -227 6 -88 12 -180 14
-204 3 -48 16 -61 57 -61 54 0 66 91 22 165 -22 39 -26 59 -33 192 -5 81 -8
164 -7 183 1 34 0 35 -41 38 -22 2 -44 -2 -48 -8z"/>
<path d="M1116 698 c-3 -7 -7 -58 -9 -113 -4 -88 -2 -106 19 -156 23 -56 30
-98 38 -218 5 -68 13 -81 58 -81 52 0 58 7 58 77 0 58 -3 68 -28 91 -27 25
-29 36 -42 157 -8 72 -14 157 -14 190 l-1 60 -38 3 c-24 2 -39 -1 -41 -10z"/>
<path d="M1320 695 c-12 -15 -5 -55 10 -55 10 0 30 33 30 48 0 17 -28 21 -40
7z"/>
<path d="M1435 699 c-4 -6 -4 -30 0 -55 5 -35 10 -44 27 -44 21 0 78 -54 78
-74 0 -6 20 -51 45 -99 25 -49 45 -96 45 -104 0 -9 9 -31 21 -49 15 -26 20
-47 17 -86 -2 -42 0 -53 12 -53 13 0 15 25 15 165 1 198 -2 212 -42 223 -23 7
-36 22 -56 63 -15 30 -27 67 -27 83 0 17 -6 31 -16 35 -26 10 -112 7 -119 -5z"/>
<path d="M1664 699 c-3 -6 -1 -29 7 -51 8 -25 15 -35 20 -26 7 13 12 51 10 76
-1 15 -27 16 -37 1z"/>
<path d="M3220 684 c-6 -14 -10 -45 -10 -70 0 -38 4 -46 25 -56 18 -8 29 -26
40 -64 8 -28 15 -59 15 -68 0 -40 -72 -24 -93 21 -13 29 -23 22 -32 -24 -3
-21 -9 -47 -11 -59 -5 -18 -1 -20 29 -16 48 6 90 -20 122 -74 22 -38 26 -53
21 -89 -6 -34 -4 -44 9 -49 24 -9 68 -7 84 3 14 9 12 24 -24 166 -7 28 -16 73
-20 100 -3 28 -15 84 -26 127 -10 42 -19 92 -19 111 0 58 -7 67 -56 67 -39 0
-46 -3 -54 -26z"/>
<path d="M3540 708 c-1 -2 -2 -130 -3 -285 -2 -228 1 -284 11 -288 26 -10 70
-5 75 8 2 7 1 60 -3 117 -8 128 -6 142 28 138 21 -2 30 -15 53 -70 16 -36 32
-92 35 -125 8 -64 15 -73 59 -73 59 0 61 9 32 107 -15 48 -27 95 -27 103 -1 8
-12 33 -25 55 -31 51 -31 80 0 121 13 17 30 52 36 77 11 39 10 48 -7 78 l-20
34 -122 3 c-67 1 -122 1 -122 0z m172 -55 c22 -26 28 -59 17 -96 -11 -41 -61
-90 -86 -85 -15 3 -18 14 -21 77 -2 54 1 79 13 97 18 28 55 31 77 7z"/>
<path d="M3926 678 c4 -18 9 -145 9 -281 1 -136 6 -251 11 -256 5 -5 43 -12
84 -15 71 -6 78 -5 128 24 43 25 57 41 79 88 23 49 27 70 27 157 1 134 -21
203 -86 268 l-47 47 -107 0 -106 0 8 -32z m185 -35 c29 -29 43 -53 56 -98 20
-74 20 -213 0 -275 -27 -85 -124 -130 -145 -67 -4 12 -5 120 -2 240 4 179 8
219 20 227 23 15 28 13 71 -27z"/>
<path d="M4345 700 c-3 -5 -1 -27 6 -48 8 -27 10 -114 7 -276 -3 -205 -1 -237
12 -241 8 -2 51 -7 96 -11 104 -8 144 8 144 60 0 47 -8 49 -50 16 -47 -37 -82
-38 -109 -4 -18 23 -21 41 -21 139 0 129 5 138 72 133 40 -3 43 -1 43 22 0 23
-4 25 -41 25 -55 0 -74 18 -74 70 0 48 30 95 60 95 11 0 36 -11 56 -25 20 -14
41 -25 45 -25 12 0 11 37 -1 61 -10 17 -22 19 -125 19 -63 0 -116 -4 -120 -10z"/>
<path d="M4717 704 c-10 -10 -9 -32 4 -76 8 -30 15 -38 33 -38 17 0 32 -15 60
-59 20 -32 36 -63 36 -69 0 -5 17 -41 39 -79 59 -108 76 -164 63 -202 -10 -27
-8 -32 10 -42 13 -7 24 -7 30 -1 6 6 7 82 2 206 -6 166 -9 194 -21 185 -10 -9
-20 -9 -38 -1 -32 15 -53 49 -75 119 l-18 58 -59 3 c-32 2 -62 0 -66 -4z"/>
<path d="M4954 695 c-4 -9 2 -32 12 -51 18 -33 19 -33 27 -12 12 34 4 72 -16
76 -9 2 -20 -4 -23 -13z"/>
<path d="M5270 705 c-3 -26 -1 -567 2 -569 1 -2 51 -7 109 -11 103 -6 107 -6
128 16 20 22 30 79 12 79 -4 0 -25 -11 -45 -25 -46 -31 -76 -32 -103 -3 -19
20 -22 37 -24 138 -2 63 0 121 5 128 9 15 41 16 68 1 28 -15 53 9 43 41 -6 19
-12 21 -44 16 -44 -7 -56 0 -71 39 -14 36 -6 73 22 103 28 29 52 28 92 -3 18
-14 35 -25 38 -25 13 0 17 32 8 55 -9 25 -11 25 -125 25 -63 0 -115 -2 -115
-5z"/>
<path d="M6080 708 c0 -2 -2 -116 -3 -255 l-2 -251 25 -27 c36 -39 73 -55 123
-55 39 0 49 5 76 35 31 35 41 75 20 75 -6 0 -24 -13 -39 -30 -35 -37 -51 -38
-92 -1 l-33 29 0 114 c0 62 2 169 5 238 l5 125 -42 3 c-24 2 -43 2 -43 0z"/>
<path d="M6315 700 c-9 -15 5 -52 18 -47 15 5 16 49 0 54 -6 2 -14 -1 -18 -7z"/>
<path d="M6450 708 c-1 -2 -2 -130 -3 -286 -2 -282 -2 -283 19 -288 12 -3 32
-4 44 -2 l22 3 0 285 0 285 -41 3 c-23 2 -41 2 -41 0z"/>
<path d="M6635 704 c-6 -2 -10 -105 -9 -280 1 -304 0 -299 62 -292 l27 3 0
130 0 130 41 20 c137 67 201 186 142 265 l-22 30 -115 -1 c-64 0 -120 -2 -126
-5z m161 -39 c34 -23 49 -70 36 -113 -13 -44 -62 -85 -95 -80 -20 3 -22 9 -25
81 -3 71 -1 79 22 102 29 29 34 30 62 10z"/>
<path d="M6995 698 c-3 -7 1 -47 8 -88 11 -64 16 -75 34 -78 32 -5 52 -43 62
-118 16 -107 39 -112 60 -14 26 115 26 119 -2 129 -29 11 -47 56 -47 115 0 23
-5 47 -12 54 -16 16 -97 16 -103 0z"/>
<path d="M7242 698 c-12 -16 -32 -85 -32 -116 0 -12 9 -30 21 -40 19 -16 20
-27 19 -202 -1 -102 -1 -191 -1 -197 1 -15 67 -18 76 -4 3 5 6 134 8 285 2
222 -1 277 -11 281 -25 9 -69 5 -80 -7z"/>
<path d="M7435 699 c-4 -6 -4 -25 -1 -42 8 -45 9 -412 0 -468 -8 -56 -10 -55
127 -64 90 -7 98 -6 118 14 21 21 29 75 13 85 -4 2 -23 -9 -42 -25 -25 -22
-42 -29 -64 -27 -48 5 -66 51 -66 170 0 115 9 131 74 126 38 -3 41 -1 41 22 0
23 -4 25 -43 25 -56 0 -75 23 -69 83 8 75 57 103 108 64 13 -10 32 -21 41 -25
24 -8 32 21 13 49 -15 23 -21 24 -130 24 -70 0 -116 -4 -120 -11z"/>
<path d="M7794 695 c-4 -9 -3 -35 2 -58 8 -36 13 -43 39 -47 26 -5 35 -17 83
-115 30 -61 68 -137 84 -169 25 -50 29 -68 25 -106 -7 -56 4 -80 30 -64 10 7
17 22 16 35 -1 13 -5 89 -9 169 -4 80 -11 153 -16 162 -4 10 -22 21 -39 26
-27 7 -35 17 -64 92 l-33 85 -56 3 c-44 2 -58 0 -62 -13z"/>
<path d="M8032 685 c2 -14 8 -26 13 -26 6 0 11 12 13 26 2 18 -1 25 -13 25
-12 0 -15 -7 -13 -25z"/>
<path d="M8147 688 c-9 -32 1 -41 38 -34 21 4 36 2 43 -6 9 -12 10 -422 1
-488 -4 -23 0 -25 37 -28 50 -4 71 15 54 48 -7 13 -10 93 -8 243 l3 222 30 -1
c17 0 39 -2 50 -5 26 -5 33 32 10 55 -13 13 -39 16 -135 16 -112 0 -118 -1
-123 -22z"/>
<path d="M2330 615 c0 -8 5 -24 12 -34 16 -27 3 -50 -37 -67 -32 -13 -36 -18
-33 -47 2 -26 8 -33 29 -35 19 -2 34 6 58 33 26 30 31 44 31 85 0 31 -6 54
-16 64 -20 20 -44 21 -44 1z"/>
<path d="M1430 375 c0 -58 4 -105 9 -105 9 0 20 149 13 188 -2 12 -8 22 -13
22 -5 0 -9 -47 -9 -105z"/>
<path d="M541 262 c0 -7 -10 -34 -22 -59 -22 -48 -19 -76 7 -71 30 6 38 32 27
89 -6 30 -11 48 -12 41z"/>
<path d="M3114 223 c-38 -53 -40 -93 -4 -93 30 0 39 22 32 74 l-7 48 -21 -29z"/>
<path d="M1431 202 c-23 -43 -6 -87 24 -62 10 8 13 21 9 39 -9 38 -21 46 -33
23z"/>
<path d="M4710 179 c-12 -21 -7 -49 7 -49 23 1 35 19 29 44 -8 31 -21 33 -36
5z"/>
<path d="M6990 171 c0 -33 16 -49 32 -33 14 14 1 62 -17 62 -10 0 -15 -10 -15
-29z"/>
<path d="M7792 188 c-16 -16 -15 -45 2 -51 23 -9 39 18 26 42 -13 25 -12 25
-28 9z"/>
</g>
</svg>
